<svg xmlns="http://www.w3.org/2000/svg" width="100%" viewBox="0 0 167 40" fill="none" class="navbar_logo"><path d="M164.895 12.4101H164.901C164.049 10.8349 162.865 9.61499 161.381 8.78191C159.902 7.95368 158.182 7.53289 156.271 7.53289C154.36 7.53289 152.581 8.00461 151.071 8.9347C150.101 9.53253 149.27 10.2953 148.574 11.2096C148.521 11.2812 148.405 11.2448 148.405 11.1538V7.98157C148.405 7.93185 148.363 7.89062 148.314 7.89062H143.496C143.444 7.89062 143.402 7.84818 143.402 7.79725V5.90796C143.402 5.05669 143.573 4.44916 143.92 4.08173C144.265 3.7143 144.956 3.52877 145.753 3.52877H148.352C148.403 3.52877 148.446 3.48633 148.446 3.4354V0.093373C148.446 0.0424423 148.403 0 148.352 0H144.582C142.723 0 141.379 0.460802 140.544 1.38119C139.71 2.3028 139.292 3.72643 139.292 5.65452V7.79846C139.292 7.8506 139.249 7.89183 139.198 7.89183H131.918C131.867 7.89183 131.824 7.93428 131.824 7.98521V29.478C131.824 29.5289 131.867 29.5713 131.918 29.5713H135.842C135.893 29.5713 135.935 29.5289 135.935 29.478V11.6825C135.935 11.6304 135.978 11.5892 136.028 11.5892H139.196C139.248 11.5892 139.289 11.6316 139.289 11.6825V29.478C139.289 29.5289 139.332 29.5713 139.383 29.5713H143.307C143.358 29.5713 143.4 29.5289 143.4 29.478V11.6801C143.4 11.6304 143.44 11.5892 143.491 11.5892H148.12C148.194 11.5892 148.238 11.6716 148.197 11.7347C147.956 12.096 147.736 12.4756 147.535 12.8806C146.704 14.5553 146.285 16.5197 146.285 18.7231C146.285 20.9265 146.719 22.8594 147.576 24.5498C148.44 26.2499 149.671 27.5838 151.232 28.5139C152.793 29.4428 154.634 29.9109 156.706 29.9109C159.09 29.9109 161.136 29.1918 162.786 27.7706C164.434 26.3542 165.479 24.5037 165.888 22.2737L165.945 21.9633C165.955 21.9063 165.911 21.8529 165.853 21.8529H162.029C161.986 21.8529 161.949 21.882 161.938 21.9232L161.887 22.1209C161.565 23.3881 160.92 24.391 159.969 25.0967C159.015 25.8085 157.836 26.1675 156.461 26.1675C154.665 26.1675 153.253 25.5939 152.146 24.414C151.077 23.2741 150.494 21.7329 150.418 19.8411C150.415 19.789 150.458 19.7453 150.51 19.7453H166.056C166.105 19.7453 166.144 19.709 166.149 19.6617L166.168 19.4191C166.222 18.7376 166.25 18.2526 166.25 17.93C166.25 15.8067 165.739 13.9805 164.894 12.415V12.4113L164.895 12.4101ZM162.013 16.2093H150.777C150.72 16.2081 150.673 16.1559 150.683 16.0965C150.909 14.7323 151.516 13.5997 152.492 12.7205C153.587 11.7347 154.872 11.2363 156.312 11.2363C157.938 11.2363 159.299 11.7104 160.354 12.6417C161.3 13.4784 161.889 14.6414 162.106 16.1014C162.113 16.1572 162.071 16.2105 162.013 16.2105V16.2093Z" fill="currentColor"></path><path d="M135.843 0H131.919C131.868 0 131.825 0.0424423 131.825 0.093373V4.58013C131.825 4.63227 131.867 4.6735 131.919 4.6735H135.843C135.895 4.6735 135.936 4.63106 135.936 4.58013V0.093373C135.936 0.0412296 135.895 0 135.843 0Z" fill="currentColor"></path><path d="M106.156 13.6713H106.16L107.244 8.74918C106.749 8.5018 105.861 8.37569 105.229 8.47634C102.081 8.96624 100.194 11.6328 97.9579 19.5234L100.194 8.66915L99.8653 8.42419H93.5087V8.9141C95.2258 9.03658 95.7472 9.36156 95.2973 11.7735L91.5139 29.5713H95.7812C98.3398 18.2041 101.775 10.5111 106.155 13.6725H106.156V13.6713Z" fill="currentColor"></path><path d="M128.377 0H124.453C124.402 0 124.359 0.0424423 124.359 0.0933729V19.6398C124.359 21.4067 124.017 23.1638 123.299 24.7778C122.437 26.7168 121.428 27.6663 120.528 27.6093C119.139 27.4868 117.913 25.7285 114.928 19.4737C119.711 17.8779 122.859 14.4849 123.105 11.7056C123.269 9.82477 122.044 8.51755 120.203 8.51755C116.401 8.51755 113.102 10.1837 110.118 19.3415L114.562 0.246165L114.234 0H107.762V0.491117C109.479 0.613594 110 0.953132 109.55 3.36506L103.807 29.5713H108.14C108.997 25.9201 109.948 22.8412 110.917 20.2983C110.913 20.3965 111.006 20.7931 111.124 21.192C113.618 27.3231 115.416 29.94 118.361 29.94C120.434 29.94 122.7 28.0931 124.181 24.9463C124.223 24.8566 124.358 24.8845 124.358 24.9864V29.478C124.358 29.5289 124.4 29.5713 124.451 29.5713H128.375C128.426 29.5713 128.469 29.5289 128.469 29.478V0.0933729C128.469 0.0424423 128.426 0 128.375 0H128.377ZM110.93 20.2716H110.929C113.377 13.8616 115.954 10.8883 117.505 10.8883C118.364 10.8883 119.258 11.7165 119.06 13.2602C118.524 17.4231 113.265 19.5246 110.93 20.2728V20.2716Z" fill="currentColor"></path><path d="M73.9307 18.603C75.4441 12.1021 80.8403 8.42175 85.6241 8.42175C90.408 8.42175 93.8834 13.0419 92.37 19.6241C90.8979 26.2063 85.5417 29.9679 80.8003 29.9679C75.7302 29.9679 72.4586 25.1852 73.9307 18.6018V18.603ZM81.2502 29.3143C83.7846 29.2318 86.4415 25.4714 87.7911 18.9705C89.0583 12.5508 87.9961 8.99412 85.2155 9.07658C82.5174 9.15904 79.7368 13.0831 78.4696 19.3791C77.2024 25.8789 78.4696 29.3967 81.2502 29.3143Z" fill="currentColor"></path><path d="M72.3588 9.4416C72.2545 9.17239 72.1648 8.93471 72.0435 8.66672L71.7221 8.42419H67.3057V8.91531H67.3166C67.9314 8.96018 68.6336 9.039 69.1453 9.74597C69.326 9.99456 69.4957 10.2516 69.651 10.5014C71.2468 13.2093 71.4881 16.4882 70.9339 19.5901C70.4913 22.1294 69.3017 24.5644 67.3324 26.2887C66.6436 26.8902 65.8227 27.4505 65.0029 27.4505C62.6783 27.4505 62.2054 24.4455 62.9245 20.4451L64.8465 8.67036L64.5179 8.42541H58.0836V8.91652C59.8007 9.039 60.2858 9.44887 59.8335 11.862C59.8335 11.862 58.4365 17.9676 57.4082 20.359C55.4995 24.7924 53.3228 27.3158 51.6385 27.3158C50.1251 27.3158 49.349 25.8025 50.2488 20.9374L52.571 8.67157L52.2569 8.42662H46.0797V8.91652C47.7241 9.039 48.2237 9.3652 47.792 11.7783L45.7924 21.7959C44.6464 27.5184 45.9548 29.9727 49.1853 29.9727C52.8232 29.9727 56.5678 27.0309 59.0622 19.5065L58.5881 21.6722C57.6277 27.0745 60.2433 29.9655 63.2216 29.9655C64.7143 29.9655 66.0482 29.2039 67.0535 28.4545C71.9477 24.8057 74.6931 15.4502 72.3564 9.44645H72.3551L72.3588 9.4416Z" fill="currentColor"></path><path d="M36.663 16.8678C36.663 15.9134 36.2737 14.9991 35.5849 14.3382L29.6867 8.67279C29.1288 8.1368 28.2024 8.53212 28.2024 9.30578V14.0775C28.2024 15.0319 28.5916 15.9462 29.2804 16.6071L35.1787 22.2725C35.7365 22.8085 36.663 22.4132 36.663 21.6395V16.8678Z" fill="currentColor"></path><path d="M28.2021 22.2749C28.2021 21.3194 27.8128 20.405 27.1228 19.7442L15.5846 8.67279C15.0268 8.13802 14.1003 8.53334 14.1003 9.30579V15.7231C14.1003 16.6786 14.4896 17.5929 15.1796 18.2538L26.7178 29.3252C27.2756 29.86 28.2021 29.4646 28.2021 28.6922V22.2749Z" fill="currentColor"></path><path d="M14.1017 22.275C14.1017 21.3194 13.7125 20.4051 13.0225 19.7442L1.48427 8.67163C0.926454 8.13686 0 8.53218 0 9.30463V15.7219C0 16.6775 0.389256 17.5918 1.07925 18.2527L12.6175 29.324C13.1753 29.8588 14.1017 29.4635 14.1017 28.691V22.2738V22.275Z" fill="currentColor"></path><path d="M45.386 37.4257C45.386 37.0194 45.4733 36.6581 45.6479 36.3416C45.8225 36.0251 46.0554 35.7571 46.3464 35.5376C46.6374 35.3181 46.9697 35.1508 47.3456 35.038C47.7215 34.9252 48.1096 34.8682 48.5109 34.8682C48.9123 34.8682 49.2761 34.9264 49.6593 35.0416C50.0425 35.158 50.3966 35.3339 50.7228 35.5691L50.2268 36.2143C49.9625 36.0299 49.7042 35.8881 49.4544 35.7886C49.2034 35.6892 48.9111 35.6395 48.5752 35.6395C48.2818 35.6395 48.0089 35.6819 47.7567 35.7668C47.5045 35.8517 47.2825 35.9717 47.0946 36.1282C46.9054 36.2846 46.7575 36.4713 46.652 36.692C46.5453 36.9115 46.4919 37.154 46.4919 37.4184C46.4919 37.6828 46.5404 37.9253 46.6374 38.1448C46.7344 38.3643 46.8727 38.5546 47.0521 38.7147C47.2316 38.876 47.4475 39.0009 47.7009 39.0906C47.9531 39.1804 48.2333 39.2252 48.5413 39.2252C48.8153 39.2252 49.0724 39.1913 49.3137 39.1221C49.555 39.0542 49.7648 38.9609 49.9443 38.842V37.8925H48.4491V37.1346H51.0078V39.2179C50.7107 39.4302 50.3517 39.6133 49.9346 39.7673C49.5162 39.9213 49.0384 39.9977 48.5 39.9977C48.032 39.9977 47.6075 39.9322 47.2243 39.8024C46.8411 39.6727 46.515 39.492 46.2433 39.2604C45.9717 39.0288 45.7619 38.7571 45.6127 38.4455C45.4636 38.1339 45.3896 37.7931 45.3896 37.4245L45.386 37.4257Z" fill="currentColor"></path><path d="M52.3894 39.914V34.9531H55.0754C55.387 34.9531 55.6805 34.9847 55.9545 35.0489C56.2286 35.1132 56.4687 35.2102 56.6736 35.3424C56.8786 35.4746 57.0411 35.6407 57.1587 35.8384C57.2763 36.0372 57.3357 36.2737 57.3357 36.5465C57.3357 36.7587 57.2993 36.9467 57.2254 37.1104C57.1526 37.2729 57.0495 37.4148 56.9174 37.536C56.7852 37.6561 56.63 37.758 56.4529 37.8404C56.2759 37.9229 56.0807 37.9884 55.8684 38.0356L57.4909 39.914H56.2504L54.7759 38.1848H53.4504V39.914H52.387H52.3894ZM53.4517 37.4124H54.9966C55.3749 37.4124 55.6744 37.3384 55.8963 37.1892C56.1182 37.0401 56.2298 36.8315 56.2298 36.5623C56.2298 36.2931 56.1207 36.0954 55.9036 35.956C55.6865 35.8165 55.381 35.7474 54.9893 35.7474H53.4517V37.4124Z" fill="currentColor"></path><path d="M61.3397 39.9989C60.8813 39.9989 60.4593 39.931 60.0749 39.7964C59.6893 39.6618 59.3595 39.4774 59.083 39.2434C58.8065 39.0094 58.5907 38.7365 58.4342 38.4249C58.2778 38.1132 58.2002 37.7822 58.2002 37.4329C58.2002 37.0837 58.2778 36.7527 58.4342 36.441C58.5907 36.1294 58.8065 35.8565 59.083 35.6225C59.3595 35.3884 59.6905 35.2041 60.0749 35.0695C60.4605 34.9349 60.8813 34.867 61.3397 34.867C61.7981 34.867 62.2201 34.9337 62.6045 35.0695C62.9901 35.2041 63.3199 35.3884 63.5964 35.6225C63.8729 35.8565 64.0888 36.1294 64.2452 36.441C64.4016 36.7527 64.4792 37.0837 64.4792 37.4329C64.4792 37.7822 64.4016 38.1132 64.2452 38.4249C64.0888 38.7365 63.8729 39.0094 63.5964 39.2434C63.3199 39.4774 62.9889 39.6618 62.6045 39.7964C62.2189 39.931 61.7981 39.9989 61.3397 39.9989ZM61.3397 35.6407C61.0378 35.6407 60.7625 35.6867 60.5139 35.7789C60.2653 35.8711 60.0519 35.9984 59.8724 36.1621C59.6929 36.3246 59.5535 36.515 59.4541 36.732C59.3546 36.9491 59.3049 37.1831 59.3049 37.4342C59.3049 37.6852 59.3546 37.918 59.4541 38.1363C59.5535 38.3533 59.6929 38.5437 59.8724 38.7062C60.0519 38.8687 60.2653 38.9972 60.5139 39.0894C60.7625 39.1816 61.0365 39.2276 61.3397 39.2276C61.6429 39.2276 61.9169 39.1816 62.1655 39.0894C62.4141 38.9972 62.6275 38.8699 62.807 38.7062C62.9865 38.5437 63.1259 38.3533 63.2254 38.1363C63.3248 37.9192 63.3745 37.6852 63.3745 37.4342C63.3745 37.1831 63.3248 36.9503 63.2254 36.732C63.1259 36.515 62.9865 36.3246 62.807 36.1621C62.6275 35.9996 62.4141 35.8711 62.1655 35.7789C61.9169 35.6867 61.6417 35.6407 61.3397 35.6407Z" fill="currentColor"></path><path d="M68.1719 39.9989C67.7803 39.9989 67.4237 39.9431 67.1048 39.8328C66.7859 39.7224 66.5131 39.5648 66.2863 39.3611C66.0595 39.1573 65.8849 38.9148 65.7612 38.6311C65.6387 38.3473 65.5769 38.0308 65.5769 37.6816V34.9531H66.6404V37.7458C66.6404 37.9677 66.6768 38.1702 66.7507 38.3521C66.8235 38.534 66.929 38.6905 67.066 38.8202C67.203 38.95 67.3655 39.0506 67.5547 39.121C67.7439 39.1925 67.9561 39.2277 68.1926 39.2277C68.429 39.2277 68.6352 39.1925 68.8268 39.121C69.0184 39.0506 69.1809 38.95 69.3155 38.8202C69.4501 38.6905 69.5543 38.534 69.6271 38.3521C69.6999 38.1702 69.7375 37.9677 69.7375 37.7458V34.9531H70.7646V37.6816C70.7646 38.0308 70.7015 38.3473 70.5766 38.6311C70.4517 38.9148 70.2759 39.1573 70.0491 39.3611C69.8223 39.5648 69.5495 39.7212 69.2306 39.8328C68.9116 39.9431 68.5588 39.9989 68.1707 39.9989H68.1719Z" fill="currentColor"></path><path d="M72.1833 39.914V34.9531H74.8972C75.2137 34.9531 75.5132 34.9871 75.797 35.0562C76.0808 35.1253 76.3257 35.2296 76.5343 35.3715C76.7416 35.5134 76.9078 35.6916 77.0302 35.9063C77.1527 36.1209 77.2146 36.3755 77.2146 36.6678C77.2146 36.96 77.1539 37.2159 77.0339 37.433C76.9138 37.65 76.7477 37.8319 76.5379 37.9787C76.3281 38.1254 76.082 38.2345 75.8006 38.3085C75.5193 38.3812 75.2186 38.4188 74.8972 38.4188H73.2456V39.914H72.1821H72.1833ZM73.2468 37.6246H74.8633C75.2465 37.6246 75.5496 37.5409 75.774 37.3735C75.9983 37.2062 76.1111 36.971 76.1111 36.6678C76.1111 36.3646 76.0007 36.1427 75.7812 35.9839C75.5617 35.8262 75.2537 35.7462 74.856 35.7462H73.2468V37.6246Z" fill="currentColor"></path><path d="M79.7815 39.914C79.3231 39.914 78.9702 39.7891 78.7216 39.5381C78.4731 39.2883 78.3494 38.9354 78.3494 38.4819V34.9519H82.8422V35.7462H79.4116V36.9443H82.5584V37.7167H79.4116V38.4819C79.4116 38.9075 79.619 39.1197 80.0349 39.1197H82.9404V39.914H79.7791H79.7815Z" fill="currentColor"></path><path d="M86.0608 37.4257C86.0608 37.0194 86.1481 36.6581 86.3227 36.3416C86.4973 36.0251 86.7302 35.7571 87.0212 35.5376C87.3122 35.3181 87.6445 35.1508 88.0204 35.038C88.3963 34.9252 88.7844 34.8682 89.1857 34.8682C89.5871 34.8682 89.9509 34.9264 90.3341 35.0416C90.7173 35.158 91.0714 35.3339 91.3976 35.5691L90.9016 36.2143C90.6373 36.0299 90.379 35.8881 90.1292 35.7886C89.8782 35.6892 89.5859 35.6395 89.25 35.6395C88.9566 35.6395 88.6837 35.6831 88.4315 35.7704C88.1793 35.8577 87.9573 35.9802 87.7694 36.1391C87.5802 36.2979 87.4323 36.4859 87.3268 36.7066C87.2201 36.9261 87.1667 37.1686 87.1667 37.4329C87.1667 37.6973 87.2201 37.9398 87.3268 38.1593C87.4335 38.3788 87.5802 38.568 87.7694 38.7268C87.9586 38.8857 88.1793 39.0082 88.4315 39.0955C88.6837 39.1828 88.9566 39.2264 89.25 39.2264C89.4246 39.2264 89.5883 39.2131 89.7387 39.1876C89.8903 39.1622 90.0346 39.1222 90.174 39.0712C90.3135 39.0191 90.4493 38.956 90.5815 38.8796C90.7137 38.8044 90.8507 38.7196 90.9926 38.625L91.4885 39.2701C91.1526 39.5114 90.7852 39.6933 90.3863 39.8158C89.9873 39.9383 89.5859 40.0001 89.1845 40.0001C88.7832 40.0001 88.3939 39.9419 88.0192 39.8267C87.6433 39.7115 87.311 39.5429 87.02 39.3234C86.7289 39.104 86.4961 38.8348 86.3215 38.5158C86.1469 38.1969 86.0596 37.8343 86.0596 37.4281L86.0608 37.4257Z" fill="currentColor"></path><path d="M92.5884 39.914V34.9531H95.2743C95.586 34.9531 95.8795 34.9847 96.1535 35.0489C96.4276 35.1132 96.6677 35.2102 96.8726 35.3424C97.0775 35.4746 97.24 35.6407 97.3577 35.8384C97.4753 36.0372 97.5347 36.2737 97.5347 36.5465C97.5347 36.7587 97.4983 36.9467 97.4244 37.1104C97.3516 37.2729 97.2485 37.4148 97.1163 37.536C96.9842 37.6561 96.8289 37.758 96.6519 37.8404C96.4749 37.9229 96.2796 37.9884 96.0674 38.0356L97.6899 39.914H96.4494L94.9748 38.1848H93.6494V39.914H92.5859H92.5884ZM93.6506 37.4124H95.1955C95.5739 37.4124 95.8734 37.3384 96.0953 37.1892C96.3172 37.0401 96.4288 36.8315 96.4288 36.5623C96.4288 36.2931 96.3196 36.0954 96.1026 35.956C95.8855 35.8165 95.5799 35.7474 95.1882 35.7474H93.6506V37.4124Z" fill="currentColor"></path><path d="M100.115 39.914C99.6569 39.914 99.304 39.7891 99.0554 39.5381C98.8068 39.2883 98.6831 38.9354 98.6831 38.4819V34.9519H103.176V35.7462H99.7454V36.9442H102.892V37.7167H99.7454V38.4819C99.7454 38.9075 99.9527 39.1197 100.369 39.1197H103.274V39.914H100.113H100.115ZM101 33.5355H102.106L101.284 34.4074H100.377L101 33.5355Z" fill="currentColor"></path><path d="M104.587 39.914V34.9531H106.827C107.305 34.9531 107.739 35.0125 108.131 35.1302C108.522 35.2478 108.858 35.4164 109.137 35.6334C109.416 35.8505 109.632 36.1124 109.786 36.4168C109.94 36.7211 110.016 37.0607 110.016 37.4342C110.016 37.8077 109.94 38.146 109.786 38.4516C109.632 38.756 109.416 39.0179 109.137 39.2349C108.858 39.452 108.522 39.6206 108.131 39.7382C107.739 39.8558 107.304 39.9152 106.827 39.9152H104.587V39.914ZM105.65 39.1197H106.897C107.199 39.1197 107.473 39.0797 107.72 38.9997C107.966 38.9197 108.177 38.8057 108.354 38.6589C108.531 38.5122 108.668 38.3352 108.765 38.1278C108.862 37.9204 108.91 37.6913 108.91 37.4402C108.91 37.1892 108.862 36.954 108.765 36.7454C108.668 36.538 108.531 36.3586 108.354 36.2106C108.177 36.0615 107.965 35.9475 107.72 35.8675C107.473 35.7874 107.199 35.7474 106.897 35.7474H105.65V39.121V39.1197Z" fill="currentColor"></path><path d="M111.185 39.914V34.9531H112.248V39.914H111.185Z" fill="currentColor"></path><path d="M115.252 35.7462H113.346V34.9519H118.222V35.7462H116.316V39.914H115.252V35.7462Z" fill="currentColor"></path><path d="M125.402 38.7159H122.667L122.071 39.914H120.987L123.56 34.9531H124.644L127.218 39.914H125.999L125.403 38.7159H125.402ZM123.049 37.9435H125.012L124.033 35.973L123.049 37.9435Z" fill="currentColor"></path><path d="M127.571 37.4257C127.571 37.0194 127.658 36.6581 127.832 36.3416C128.007 36.0251 128.24 35.7571 128.531 35.5376C128.822 35.3181 129.154 35.1508 129.53 35.038C129.906 34.9252 130.294 34.8682 130.696 34.8682C131.097 34.8682 131.461 34.9264 131.844 35.0416C132.227 35.158 132.581 35.3339 132.907 35.5691L132.411 36.2143C132.147 36.0299 131.889 35.8881 131.639 35.7886C131.388 35.6892 131.096 35.6395 130.76 35.6395C130.466 35.6395 130.193 35.6819 129.941 35.7668C129.689 35.8517 129.467 35.9717 129.279 36.1282C129.09 36.2846 128.942 36.4713 128.837 36.692C128.73 36.9115 128.676 37.154 128.676 37.4184C128.676 37.6828 128.725 37.9253 128.822 38.1448C128.919 38.3643 129.057 38.5546 129.237 38.7147C129.416 38.876 129.632 39.0009 129.885 39.0906C130.138 39.1804 130.418 39.2252 130.726 39.2252C131 39.2252 131.257 39.1913 131.498 39.1221C131.74 39.0542 131.949 38.9609 132.129 38.842V37.8925H130.634V37.1346H133.192V39.2179C132.895 39.4302 132.536 39.6133 132.119 39.7673C131.701 39.9213 131.223 39.9977 130.685 39.9977C130.217 39.9977 129.792 39.9322 129.409 39.8024C129.026 39.6727 128.7 39.492 128.428 39.2604C128.156 39.0288 127.946 38.7571 127.797 38.4455C127.648 38.1339 127.574 37.7931 127.574 37.4245L127.571 37.4257Z" fill="currentColor"></path><path d="M134.573 39.914V34.9531H137.259C137.571 34.9531 137.865 34.9847 138.139 35.0489C138.413 35.1132 138.653 35.2102 138.858 35.3424C139.063 35.4746 139.225 35.6407 139.343 35.8384C139.46 36.0372 139.52 36.2737 139.52 36.5465C139.52 36.7587 139.483 36.9467 139.409 37.1104C139.337 37.2729 139.234 37.4148 139.101 37.536C138.969 37.6561 138.814 37.758 138.637 37.8404C138.46 37.9229 138.265 37.9884 138.053 38.0356L139.675 39.914H138.435L136.96 38.1848H135.635V39.914H134.571H134.573ZM135.636 37.4124H137.181C137.559 37.4124 137.859 37.3384 138.08 37.1892C138.302 37.0401 138.414 36.8315 138.414 36.5623C138.414 36.2931 138.305 36.0954 138.088 35.956C137.871 35.8165 137.565 35.7474 137.173 35.7474H135.636V37.4124Z" fill="currentColor"></path><path d="M140.845 39.914V34.9531H141.909V39.914H140.845Z" fill="currentColor"></path><path d="M143.077 37.4257C143.077 37.0194 143.164 36.6581 143.339 36.3416C143.514 36.0251 143.747 35.7571 144.038 35.5376C144.329 35.3181 144.661 35.1508 145.037 35.038C145.413 34.9252 145.801 34.8682 146.202 34.8682C146.603 34.8682 146.967 34.9264 147.35 35.0416C147.734 35.158 148.088 35.3339 148.414 35.5691L147.918 36.2143C147.654 36.0299 147.395 35.8881 147.146 35.7886C146.895 35.6892 146.602 35.6395 146.266 35.6395C145.973 35.6395 145.7 35.6831 145.448 35.7704C145.196 35.8577 144.974 35.9802 144.786 36.1391C144.597 36.2979 144.449 36.4859 144.343 36.7066C144.236 36.9261 144.183 37.1686 144.183 37.4329C144.183 37.6973 144.236 37.9398 144.343 38.1593C144.45 38.3788 144.597 38.568 144.786 38.7268C144.975 38.8857 145.196 39.0082 145.448 39.0955C145.7 39.1828 145.973 39.2264 146.266 39.2264C146.441 39.2264 146.605 39.2131 146.755 39.1876C146.907 39.1622 147.051 39.1222 147.19 39.0712C147.33 39.0191 147.466 38.956 147.598 38.8796C147.73 38.8044 147.867 38.7196 148.009 38.625L148.505 39.2701C148.169 39.5114 147.802 39.6933 147.403 39.8158C147.004 39.9383 146.602 40.0001 146.201 40.0001C145.8 40.0001 145.41 39.9419 145.036 39.8267C144.66 39.7115 144.327 39.5429 144.036 39.3234C143.745 39.104 143.512 38.8348 143.338 38.5158C143.163 38.1969 143.076 37.8343 143.076 37.4281L143.077 37.4257Z" fill="currentColor"></path><path d="M152.284 39.9989C151.826 39.9989 151.404 39.931 151.019 39.7964C150.634 39.6618 150.304 39.4774 150.027 39.2434C149.751 39.0094 149.535 38.7365 149.379 38.4249C149.222 38.1132 149.145 37.7822 149.145 37.4329C149.145 37.0837 149.222 36.7527 149.379 36.441C149.535 36.1294 149.751 35.8565 150.027 35.6225C150.304 35.3884 150.635 35.2041 151.019 35.0695C151.405 34.9349 151.826 34.867 152.284 34.867C152.742 34.867 153.164 34.9337 153.549 35.0695C153.934 35.2041 154.264 35.3884 154.541 35.6225C154.817 35.8565 155.033 36.1294 155.19 36.441C155.346 36.7527 155.424 37.0837 155.424 37.4329C155.424 37.7822 155.346 38.1132 155.19 38.4249C155.033 38.7365 154.817 39.0094 154.541 39.2434C154.264 39.4774 153.933 39.6618 153.549 39.7964C153.163 39.931 152.742 39.9989 152.284 39.9989ZM152.284 35.6407C151.982 35.6407 151.707 35.6867 151.458 35.7789C151.21 35.8711 150.996 35.9984 150.817 36.1621C150.637 36.3246 150.498 36.515 150.398 36.732C150.299 36.9491 150.249 37.1831 150.249 37.4342C150.249 37.6852 150.299 37.918 150.398 38.1363C150.498 38.3533 150.637 38.5437 150.817 38.7062C150.996 38.8687 151.21 38.9972 151.458 39.0894C151.707 39.1816 151.981 39.2276 152.284 39.2276C152.587 39.2276 152.861 39.1816 153.11 39.0894C153.358 38.9972 153.572 38.8699 153.751 38.7062C153.931 38.5437 154.07 38.3533 154.17 38.1363C154.269 37.9192 154.319 37.6852 154.319 37.4342C154.319 37.1831 154.269 36.9503 154.17 36.732C154.07 36.515 153.931 36.3246 153.751 36.1621C153.572 35.9996 153.358 35.8711 153.11 35.7789C152.861 35.6867 152.586 35.6407 152.284 35.6407Z" fill="currentColor"></path><path d="M156.593 39.914V34.9531H157.656V39.121H160.81V39.9152H156.594L156.593 39.914Z" fill="currentColor"></path><path d="M163.092 39.914C162.633 39.914 162.281 39.7891 162.032 39.5381C161.783 39.2883 161.66 38.9354 161.66 38.4819V34.9519H166.152V35.7462H162.722V36.9443H165.869V37.7167H162.722V38.4819C162.722 38.9075 162.929 39.1197 163.345 39.1197H166.251V39.914H163.089H163.092Z" fill="currentColor"></path></svg>